<svg width="303" height="32" viewBox="0 0 303 32" fill="none" xmlns="http://www.w3.org/2000/svg">
<g clip-path="url(#clip0_1890_4235)">
<path d="M4.06711 0V28H16.2685V32H0V0H4.06711ZM34.5705 0V4H36.604V8H38.6376V24H36.604V28H34.5705V32H24.4027V28H22.3691V24H20.3356V8H22.3691V4H24.4027V0H34.5705ZM26.4362 4V8H24.4027V24H26.4362V28H32.5369V24H34.5705V8H32.5369V4H26.4362ZM87.443 0V4H79.3087V32H75.2416V4H67.1074V0H87.443ZM130.148 8V4H119.98V12H134.215V28H132.181V32H117.946V28H115.913V24H119.98V28H130.148V16H117.946V12H115.913V4H117.946V0H132.181V4H134.215V8H130.148ZM144.383 0V28H152.517V0H156.584V28H154.55V32H142.349V28H140.315V0H144.383ZM176.919 0V4H178.953V12H174.886V16H176.919V20H178.953V24H180.987V32H176.919V24H174.886V20H172.852V16H166.752V32H162.685V0H176.919ZM166.752 4V12H174.886V4H166.752ZM191.154 0V16H193.188V20H195.221V24H197.255V20H199.289V16H201.322V0H205.389V16H203.356V20H201.322V24H199.289V28H197.255V32H195.221V28H193.188V24H191.154V20H189.121V16H187.087V0H191.154ZM225.725 0V4H221.658V28H225.725V32H213.523V28H217.591V4H213.523V0H225.725ZM237.926 0V16H239.96V20H241.993V24H244.027V20H246.06V16H248.094V0H252.161V16H250.128V20H248.094V24H246.06V28H244.027V32H241.993V28H239.96V24H237.926V20H235.893V16H233.859V0H237.926ZM298.933 0V4H300.966V12H296.899V16H298.933V20H300.966V24H303V32H298.933V24H296.899V20H294.866V16H288.765V32H284.698V0H298.933ZM288.765 4V12H296.899V4H288.765ZM58.9732 0V4H61.0067V8H63.0403V24H61.0067V28H58.9732V32H48.8054V28H46.7718V24H44.7383V8H46.7718V4H48.8054V0H58.9732ZM50.8389 4V8H48.8054V24H50.8389V28H56.9396V24H58.9732V8H56.9396V4H50.8389ZM260.295 4V0H276.564V4H278.597V24H272.497V32H264.362V24H258.262V4H260.295ZM262.329 12V20H266.396V24H270.463V20H274.53V12H270.463V20H266.396V12H262.329Z" fill="#33FF33"/>
</g>
<defs>
<clipPath id="clip0_1890_4235">
<rect width="303" height="32" fill="white"/>
</clipPath>
</defs>
</svg>
