<svg viewBox="0 0 1388 231" fill="currentColor" xmlns="http://www.w3.org/2000/svg">
<g clip-path="url(#clip0_930_2936)">
<path d="M16.2416 101V214.75H64.9664V231H0V101H16.2416ZM138.054 101V117.25H146.174V133.5H154.295V198.5H146.174V214.75H138.054V231H97.4497V214.75H89.3289V198.5H81.2081V133.5H89.3289V117.25H97.4497V101H138.054ZM105.57 117.25V133.5H97.4497V198.5H105.57V214.75H129.933V198.5H138.054V133.5H129.933V117.25H105.57ZM349.195 101V117.25H316.711V231H300.47V117.25H267.987V101H349.195ZM519.732 133.5V117.25H479.128V149.75H535.973V214.75H527.852V231H471.007V214.75H462.886V198.5H479.128V214.75H519.732V166H471.007V149.75H462.886V117.25H471.007V101H527.852V117.25H535.973V133.5H519.732ZM576.577 101V214.75H609.06V101H625.302V214.75H617.181V231H568.456V214.75H560.336V101H576.577ZM706.51 101V117.25H714.631V149.75H698.389V166H706.51V182.25H714.631V198.5H722.752V231H706.51V198.5H698.389V182.25H690.268V166H665.906V231H649.664V101H706.51ZM665.906 117.25V149.75H698.389V117.25H665.906ZM763.356 101V166H771.477V182.25H779.597V198.5H787.718V182.25H795.839V166H803.96V101H820.201V166H812.081V182.25H803.96V198.5H795.839V214.75H787.718V231H779.597V214.75H771.477V198.5H763.356V182.25H755.235V166H747.114V101H763.356ZM901.409 101V117.25H885.168V214.75H901.409V231H852.685V214.75H868.926V117.25H852.685V101H901.409ZM950.134 101V166H958.255V182.25H966.376V198.5H974.497V182.25H982.617V166H990.738V101H1006.98V166H998.859V182.25H990.738V198.5H982.617V214.75H974.497V231H966.376V214.75H958.255V198.5H950.134V182.25H942.013V166H933.893V101H950.134ZM1193.76 101V117.25H1201.88V149.75H1185.64V166H1193.76V182.25H1201.88V198.5H1210V231H1193.76V198.5H1185.64V182.25H1177.52V166H1153.15V231H1136.91V101H1193.76ZM1153.15 117.25V149.75H1185.64V117.25H1153.15ZM235.503 101V117.25H243.624V133.5H251.745V198.5H243.624V214.75H235.503V231H194.899V214.75H186.779V198.5H178.658V133.5H186.779V117.25H194.899V101H235.503ZM203.02 117.25V133.5H194.899V198.5H203.02V214.75H227.383V198.5H235.503V133.5H227.383V117.25H203.02ZM1039.46 117.25V101H1104.43V117.25H1112.55V198.5H1088.19V231H1055.7V198.5H1031.34V117.25H1039.46ZM1047.58 149.75V182.25H1063.83V198.5H1080.07V182.25H1096.31V149.75H1080.07V182.25H1063.83V149.75H1047.58Z" fill="#33FF33"/>
</g>
<path d="M1314.07 106.364L1314.07 130H1377.31V106.364H1388V35.4545H1335.45V23.6364H1388V0H1314.07V59.0909H1366.62V106.364H1314.07Z" fill="#00FF3C"/>
<path d="M1262 130V0H1241V130H1262Z"/>
<path d="M1300 105H1275V130H1300V105Z"/>
<defs>
<clipPath id="clip0_930_2936">
<rect width="1210" height="130" fill="white" transform="translate(0 101)"/>
</clipPath>
</defs>
</svg>
