<svg viewBox="0 0 87 111" fill="none" xmlns="http://www.w3.org/2000/svg">
    <path
    d="M8.28508 15.2679C5.74577 10.7575 2.98465 6.38686 0.00195312 2.15592L2.23892 0.778756L4.59698 4.01192C6.49138 3.2535 8.30524 2.47514 10.0384 1.67685C11.8523 0.838683 13.8274 0.379668 15.9636 0.299805C20.8408 0.379668 24.5693 2.21573 27.1489 5.8081C28.3582 7.52443 29.4263 9.40037 30.3534 11.436C31.1595 13.5914 31.9052 15.7269 32.5905 17.8424C32.9129 19.5587 33.316 21.3149 33.7996 23.1111C34.2833 24.9871 34.9081 26.7434 35.674 28.3798C36.3996 29.9366 37.4274 31.2937 38.7575 32.4512C41.3818 34.8137 45.622 34.8137 48.2463 32.4512C49.5764 31.2937 50.6043 29.9366 51.3298 28.3798C52.0957 26.7434 52.7204 24.9871 53.2042 23.1111C53.6879 21.3149 54.0909 19.5587 54.4133 17.8424C55.0986 15.7269 55.8443 13.5914 56.6504 11.436C57.5775 9.40037 58.6456 7.52443 59.8549 5.8081C62.4345 2.21573 66.163 0.379668 71.0402 0.299805C73.1764 0.379668 75.1515 0.838683 76.9653 1.67685C78.6986 2.47514 80.5124 3.2535 82.4068 4.01192L84.7651 0.778756L87.0024 2.15592C84.0191 6.38686 81.2581 10.7575 78.7187 15.2679C77.6304 15.0284 76.6429 14.6692 75.7562 14.1901C74.8291 13.5914 73.8617 13.0526 72.854 12.5736C71.9673 12.0946 70.8991 11.6356 69.6495 11.1966C68.4404 10.7975 67.0497 10.5979 65.4777 10.5979C63.3011 10.5979 61.4269 11.1766 59.8549 12.3341C58.1217 13.5715 57.2551 15.3277 57.2551 17.6028C57.2551 19.6385 57.9202 21.6343 59.2502 23.5901C60.4998 25.6258 62.0718 27.1026 63.9662 28.0206C66.7072 28.8988 69.5085 29.2979 72.3703 29.2181C73.9423 29.2181 75.5143 29.1383 77.0863 28.9787V37.4804H66.0824L47.1046 110.5L50.6788 44.9817C50.9011 40.906 47.6237 37.4804 43.502 37.4804C39.3801 37.4804 36.1026 40.906 36.325 44.9817L39.8992 110.5L20.9215 37.4804H9.91757V28.9787C11.4896 29.1383 13.0615 29.2181 14.6335 29.2181C17.4953 29.2979 20.2967 28.8988 23.0376 28.0206C24.9321 27.1026 26.504 25.6258 27.7536 23.5901C29.0837 21.6343 29.7488 19.6385 29.7488 17.6028C29.7488 15.3277 28.8822 13.5715 27.1489 12.3341C25.577 11.1766 23.7027 10.5979 21.5261 10.5979C19.9541 10.5979 18.5634 10.7975 17.3543 11.1966C16.1048 11.6356 15.0365 12.0946 14.1498 12.5736C13.1421 13.0526 12.1747 13.5914 11.2477 14.1901C10.361 14.6692 9.37337 15.0284 8.28508 15.2679Z"
    fill="#FFE97F"
    />
</svg>